<svg width="28" height="28" viewBox="0 0 28 28" fill="none" xmlns="http://www.w3.org/2000/svg">
<g filter="url(#filter0_d_1_38516)">
<g clip-path="url(#clip0_1_38516)">
<path fill-rule="evenodd" clip-rule="evenodd" d="M14 22C19.5228 22 24 17.5228 24 12C24 6.47715 19.5228 2 14 2C8.47715 2 4 6.47715 4 12C4 17.5228 8.47715 22 14 22ZM14.9969 18.8033C18.3214 18.3204 20.875 15.4584 20.875 12C20.875 8.5416 18.3214 5.67963 14.9969 5.19674C14.7004 5.15368 14.5521 5.13215 14.3988 5.19165C14.2758 5.23941 14.1459 5.35182 14.0809 5.46672C14 5.60986 14 5.78158 14 6.125V17.875C14 18.2184 14 18.3901 14.0809 18.5333C14.1459 18.6482 14.2758 18.7606 14.3988 18.8084C14.5521 18.8679 14.7004 18.8463 14.9969 18.8033Z" fill="white"/>
</g>
</g>
<defs>
<filter id="filter0_d_1_38516" x="0" y="0" width="28" height="28" filterUnits="userSpaceOnUse" color-interpolation-filters="sRGB">
<feFlood flood-opacity="0" result="BackgroundImageFix"/>
<feColorMatrix in="SourceAlpha" type="matrix" values="0 0 0 0 0 0 0 0 0 0 0 0 0 0 0 0 0 0 127 0" result="hardAlpha"/>
<feOffset dy="2"/>
<feGaussianBlur stdDeviation="2"/>
<feComposite in2="hardAlpha" operator="out"/>
<feColorMatrix type="matrix" values="0 0 0 0 0 0 0 0 0 0 0 0 0 0 0 0 0 0 0.32 0"/>
<feBlend mode="normal" in2="BackgroundImageFix" result="effect1_dropShadow_1_38516"/>
<feBlend mode="normal" in="SourceGraphic" in2="effect1_dropShadow_1_38516" result="shape"/>
</filter>
<clipPath id="clip0_1_38516">
<rect width="20" height="20" fill="white" transform="translate(4 2)"/>
</clipPath>
</defs>
</svg>
