<svg width="22" height="24" viewBox="0 0 22 24" fill="none" xmlns="http://www.w3.org/2000/svg">
<g clip-path="url(#clip0_1_39368)">
<g filter="url(#filter0_i_1_39368)">
<path d="M10.9991 23.0075C11.7163 23.0075 12.3038 22.4802 12.4035 21.7339C13.3894 15.0871 14.2957 14.1617 20.6897 13.4354C21.4267 13.3459 21.9944 12.729 21.9944 12.0125C21.9944 11.2862 21.4367 10.6892 20.6997 10.5797C14.3455 9.69415 13.5587 8.91804 12.4035 2.28125C12.2739 1.54494 11.7062 1.01758 10.9991 1.01758C10.2721 1.01758 9.69446 1.54494 9.57494 2.2912C8.60888 8.92799 7.70256 9.85335 1.31855 10.5797C0.561635 10.6792 0.00390625 11.2763 0.00390625 12.0125C0.00390625 12.729 0.541716 13.326 1.29864 13.4354C7.66273 14.3409 8.43956 15.107 9.57494 21.7438C9.72433 22.4901 10.302 23.0075 10.9991 23.0075Z" fill="#7B61FF"/>
</g>
</g>
<defs>
<filter id="filter0_i_1_39368" x="0.00390625" y="-0.516225" width="21.9902" height="23.524" filterUnits="userSpaceOnUse" color-interpolation-filters="sRGB">
<feFlood flood-opacity="0" result="BackgroundImageFix"/>
<feBlend mode="normal" in="SourceGraphic" in2="BackgroundImageFix" result="shape"/>
<feColorMatrix in="SourceAlpha" type="matrix" values="0 0 0 0 0 0 0 0 0 0 0 0 0 0 0 0 0 0 127 0" result="hardAlpha"/>
<feOffset dy="-1.5338"/>
<feGaussianBlur stdDeviation="0.824623"/>
<feComposite in2="hardAlpha" operator="arithmetic" k2="-1" k3="1"/>
<feColorMatrix type="matrix" values="0 0 0 0 0 0 0 0 0 0 0 0 0 0 0 0 0 0 0.26 0"/>
<feBlend mode="normal" in2="shape" result="effect1_innerShadow_1_39368"/>
</filter>
<clipPath id="clip0_1_39368">
<rect width="21.9905" height="23.09" fill="white" transform="translate(0.00390625)"/>
</clipPath>
</defs>
</svg>
