<svg width="22" height="22" viewBox="0 0 22 22" fill="none" xmlns="http://www.w3.org/2000/svg">
<g clip-path="url(#clip0_1_40354)">
<path d="M15.9858 0.271484H5.50958C2.61666 0.271484 0.271484 2.61666 0.271484 5.50958V15.9858C0.271484 18.8787 2.61666 21.2239 5.50958 21.2239H15.9858C18.8787 21.2239 21.2239 18.8787 21.2239 15.9858V5.50958C21.2239 2.61666 18.8787 0.271484 15.9858 0.271484Z" fill="url(#paint0_linear_1_40354)"/>
<path fill-rule="evenodd" clip-rule="evenodd" d="M15.1132 4.854C14.6309 4.854 14.2401 5.24487 14.2401 5.72702V15.7667C14.2401 16.2489 14.6309 16.6397 15.1132 16.6397C15.5953 16.6397 15.9861 16.2489 15.9861 15.7667V5.72702C15.9861 5.24487 15.5953 4.854 15.1132 4.854ZM5.51003 5.72703C5.51003 5.24487 5.90089 4.854 6.38305 4.854C6.8652 4.854 7.25606 5.24487 7.25606 5.72703V6.60004C7.25671 7.5638 8.03792 8.34488 9.00184 8.34488C9.96614 8.34488 10.7478 7.56315 10.7478 6.59884V5.72703C10.7478 5.24487 11.1387 4.854 11.6209 4.854C12.103 4.854 12.4939 5.24487 12.4939 5.72703V6.60004C12.4933 8.5281 10.93 10.0909 9.00184 10.0909C7.07322 10.0909 5.50977 8.52746 5.50977 6.59884L5.51003 5.72703ZM6.38279 16.6403C5.90064 16.6403 5.50978 16.2494 5.50978 15.7672V14.8955C5.50977 12.9669 7.07322 11.4034 9.00184 11.4034C10.9304 11.4034 12.4939 12.9669 12.4939 14.8955L12.4937 15.7672C12.4937 16.2493 12.1028 16.6402 11.6206 16.6402C11.1385 16.6402 10.7476 16.2493 10.7476 15.7672V14.8942C10.747 13.9305 9.9657 13.1495 9.00184 13.1495C8.03795 13.1495 7.25649 13.9305 7.25581 14.8942V15.7672C7.25581 16.2494 6.86494 16.6403 6.38279 16.6403Z" fill="white"/>
</g>
<defs>
<linearGradient id="paint0_linear_1_40354" x1="21.2239" y1="21.9502" x2="-5.5108" y2="6.56625" gradientUnits="userSpaceOnUse">
<stop offset="0.427132" stop-color="#0E0D10"/>
<stop offset="1" stop-color="#201F22"/>
</linearGradient>
<clipPath id="clip0_1_40354">
<rect width="22" height="22" fill="white"/>
</clipPath>
</defs>
</svg>
